<svg width="32" height="25" viewBox="0 0 32 25" fill="none" xmlns="http://www.w3.org/2000/svg">
<path d="M17.14 5.72C17.3 5.48 17.6 5.38 18.04 5.42C18.52 5.42 19 5.56 19.48 5.84C20 6.12 20.22 6.4 20.14 6.68C19.66 8.92 18.7 11.16 17.26 13.4C15.5 16.08 13.66 17.16 11.74 16.64C9.54 16.04 8.34 14.28 8.14 11.36C8.14 11.36 8.14 11.34 8.14 11.3C8.14 11.26 8.14 11.24 8.14 11.24H8.08C8.04 11.32 7.98 11.46 7.9 11.66C7.54 12.22 7.24 12.66 7 12.98C6.8 13.3 6.5 13.7 6.1 14.18C5.7 14.66 5.26 14.98 4.78 15.14C4.34 15.3 3.86 15.32 3.34 15.2C1.78 14.76 0.84 13.06 0.52 10.1C0.44 9.26 0.46 8.46 0.58 7.7C0.7 6.9 0.96 6.14 1.36 5.42C1.8 4.7 2.38 4.16 3.1 3.8C4.7 2.96 6.56 2.66 8.68 2.9C8.76 2.46 8.84 1.98 8.92 1.46C9.04 1.22 9.32 1.12 9.76 1.16C10.24 1.16 10.72 1.3 11.2 1.58C11.72 1.82 11.96 2.1 11.92 2.42C11.8 3.22 11.68 3.94 11.56 4.58C11.56 4.62 11.56 4.66 11.56 4.7C11.24 6.94 11.08 8.88 11.08 10.52C11.08 11.88 11.2 13 11.44 13.88C11.44 13.92 11.58 14.26 11.86 14.9C12.26 14.66 12.48 14.52 12.52 14.48C12.84 14.2 13.18 13.86 13.54 13.46C14.1 12.74 14.68 11.8 15.28 10.64C16.2 8.84 16.82 7.2 17.14 5.72ZM5.98 8.9C6.58 7.82 7.18 6.7 7.78 5.54C7.5 5.54 7.22 5.56 6.94 5.6C6.66 5.6 6.42 5.62 6.22 5.66C6.02 5.66 5.78 5.7 5.5 5.78C5.26 5.82 5.04 5.9 4.84 6.02C4.68 6.1 4.52 6.24 4.36 6.44C4.2 6.6 4.06 6.8 3.94 7.04C3.58 7.84 3.48 8.88 3.64 10.16C3.68 10.44 3.86 10.98 4.18 11.78C4.7 11.1 5.3 10.14 5.98 8.9ZM30.3859 10.52C31.2259 10.56 31.6059 10.76 31.5259 11.12C31.4459 11.52 30.8059 11.7 29.6059 11.66C27.8459 11.58 26.3259 11.8 25.0459 12.32C25.4059 12.68 25.7059 13.04 25.9459 13.4C26.7059 14.44 27.2459 15.64 27.5659 17C27.8859 18.36 27.8859 19.64 27.5659 20.84C27.4059 21.48 27.1259 22.06 26.7259 22.58C26.3259 23.06 25.8659 23.42 25.3459 23.66C24.8259 23.9 24.2459 24.06 23.6059 24.14C23.0059 24.26 22.3859 24.28 21.7459 24.2C21.1459 24.16 20.5459 24.04 19.9459 23.84C18.3859 23.4 17.3659 22.64 16.8859 21.56C16.1659 20.08 16.5259 18.16 17.9659 15.8C18.8459 14.32 20.0259 13.16 21.5059 12.32C21.2259 12.04 20.7259 11.62 20.0059 11.06C19.3259 10.46 18.8259 10 18.5059 9.68C16.6259 7.84 16.1059 6.02 16.9459 4.22C17.7859 2.46 19.4459 1.42 21.9259 1.1C22.8859 0.979999 23.8659 1.02 24.8659 1.22C25.8659 1.38 26.7059 1.82 27.3859 2.54C28.0659 3.22 28.2859 4.1 28.0459 5.18C28.0059 5.5 27.7059 5.72 27.1459 5.84C26.6259 5.92 26.1059 5.92 25.5859 5.84C25.1059 5.72 24.8859 5.56 24.9259 5.36C25.0859 4.6 24.9459 3.86 24.5059 3.14C24.0659 2.38 23.4459 2.04 22.6459 2.12C22.1659 2.16 21.7059 2.36 21.2659 2.72C20.8659 3.04 20.5259 3.42 20.2459 3.86C19.9659 4.3 19.7859 4.76 19.7059 5.24C19.5059 6.44 20.0059 7.68 21.2059 8.96C21.4859 9.2 22.3859 9.96 23.9059 11.24C25.7859 10.64 27.9459 10.4 30.3859 10.52ZM22.8259 13.7C22.5459 13.94 22.2859 14.2 22.0459 14.48C20.0059 16.84 19.2459 18.94 19.7659 20.78C20.1259 22.02 21.0459 22.78 22.5259 23.06C22.6859 23.1 22.8259 23.12 22.9459 23.12C23.7059 22.52 24.2059 21.82 24.4459 21.02C24.7659 19.78 24.7659 18.5 24.4459 17.18C24.1259 15.86 23.5859 14.7 22.8259 13.7Z" fill="#333333"/>
</svg>
